<svg width="208" height="472" viewBox="0 0 208 472" fill="none" xmlns="http://www.w3.org/2000/svg">
<path d="M88 8H120V88H88V8Z" fill="#CCDCE4"/>
<path d="M72 80H136C140.243 80 144.313 81.6857 147.314 84.6863C150.314 87.6869 152 91.7565 152 96V128H56V96C56 91.7565 57.6857 87.6869 60.6863 84.6863C63.6869 81.6857 67.7565 80 72 80Z" fill="#FF7272"/>
<path d="M152 128L181.157 156.72C189.659 165.094 196.41 175.076 201.019 186.083C205.627 197.091 208 208.906 208 220.839V456C208 460.243 206.314 464.313 203.314 467.314C200.313 470.314 196.243 472 192 472H16C11.7565 472 7.68688 470.314 4.68629 467.314C1.68571 464.313 9.42237e-10 460.243 9.42237e-10 456V220.839C-5.4603e-05 208.906 2.37313 197.091 6.98146 186.083C11.5898 175.076 18.3413 165.094 26.843 156.72L56 128H152Z" fill="#CCDCE4"/>
<path d="M64 432C57.6348 432 51.5303 429.471 47.0294 424.971C42.5286 420.47 40 414.365 40 408V244.839C40.0171 238.212 41.3433 231.654 43.9025 225.541C46.4618 219.428 50.2036 213.881 54.913 209.218C66.1132 198.185 81.2041 192 96.926 192H111.074C126.796 192 141.888 198.184 153.088 209.218C157.811 213.871 161.562 219.416 164.122 225.532C166.682 231.647 168 238.211 168 244.841V408C168 414.365 165.471 420.47 160.971 424.971C156.47 429.471 150.365 432 144 432H64Z" fill="#FF7272"/>
<path d="M104 296C121.673 296 136 281.673 136 264C136 246.327 121.673 232 104 232C86.3269 232 72 246.327 72 264C72 281.673 86.3269 296 104 296Z" fill="#D63434"/>
<path d="M96 320H112V336H96V320Z" fill="#D63434"/>
<path d="M88 352H120V368H88V352Z" fill="#D63434"/>
<path d="M37.6568 29.657L26.3428 18.343L42.3428 2.343C43.0857 1.60014 43.9676 1.01088 44.9382 0.608868C45.9089 0.206855 46.9492 -3.82755e-05 47.9998 5.31126e-09H144V16H51.3128L37.6568 29.657Z" fill="#ABBAC2"/>
</svg>
