<svg width="39" height="43" viewBox="0 0 39 43" fill="none" xmlns="http://www.w3.org/2000/svg">
<path d="M10.353 33.9624L11.1806 37.5398C11.242 37.8051 11.2463 38.0805 11.1931 38.3477C11.14 38.6148 11.0306 38.8675 10.8723 39.0892C10.7141 39.3108 10.5105 39.4963 10.275 39.6332C10.0396 39.7701 9.77777 39.8554 9.50687 39.8835C9.23597 39.9115 8.96221 39.8815 8.70376 39.7957C8.44531 39.7098 8.20807 39.5699 8.00779 39.3854C7.80751 39.2008 7.64876 38.9758 7.54209 38.7252C7.43541 38.4746 7.38324 38.2041 7.38904 37.9318L7.46737 34.2608L5.2296 12.616L4.40197 9.03864C4.34058 8.77327 4.33632 8.49788 4.38948 8.23074C4.44264 7.9636 4.55199 7.71082 4.71029 7.48918C4.86858 7.26753 5.0722 7.08208 5.30763 6.94514C5.54306 6.80819 5.80492 6.72289 6.07583 6.69488C6.34674 6.66687 6.62051 6.69679 6.87897 6.78267C7.13744 6.86855 7.37469 7.00841 7.57498 7.19299C7.77527 7.37756 7.93402 7.60262 8.0407 7.85323C8.14738 8.10384 8.19955 8.37428 8.19375 8.64659L8.11541 12.3176L10.353 33.9624Z" fill="#CCDCE4"/>
<path d="M5.23145 12.6144L8.11716 12.3156L10.3575 33.9602L7.47183 34.2589L5.23145 12.6144Z" fill="#FF7272"/>
<path d="M14.9759 33.3659L15.4313 37.0094C15.4651 37.2797 15.441 37.5541 15.3607 37.8144C15.2804 38.0747 15.1457 38.3149 14.9654 38.5192C14.7852 38.7234 14.5635 38.8869 14.3153 38.999C14.067 39.111 13.7977 39.1689 13.5253 39.1689C13.2529 39.1689 12.9837 39.111 12.7354 38.999C12.4871 38.8869 12.2655 38.7234 12.0852 38.5192C11.905 38.3149 11.7702 38.0747 11.6899 37.8144C11.6096 37.5541 11.5855 37.2797 11.6194 37.0094L12.0747 33.3659V11.6057L11.6194 7.96226C11.5855 7.69196 11.6096 7.41756 11.6899 7.15727C11.7702 6.89697 11.905 6.65674 12.0852 6.45251C12.2655 6.24828 12.4871 6.08472 12.7354 5.9727C12.9837 5.86067 13.2529 5.80273 13.5253 5.80273C13.7977 5.80273 14.067 5.86067 14.3153 5.9727C14.5635 6.08472 14.7852 6.24828 14.9654 6.45251C15.1457 6.65674 15.2804 6.89697 15.3607 7.15727C15.441 7.41756 15.4651 7.69196 15.4313 7.96226L14.9759 11.6057V33.3659Z" fill="#CCDCE4"/>
<path d="M12.0752 11.6057H14.9763V33.3659H12.0752V11.6057Z" fill="#FF7272"/>
<path d="M21.7585 27.5632L22.2139 31.2067C22.2477 31.477 22.2237 31.7514 22.1434 32.0117C22.0631 32.272 21.9283 32.5122 21.7481 32.7164C21.5678 32.9207 21.3462 33.0842 21.0979 33.1962C20.8496 33.3083 20.5804 33.3662 20.308 33.3662C20.0356 33.3662 19.7663 33.3083 19.518 33.1962C19.2697 33.0842 19.0481 32.9207 18.8679 32.7164C18.6876 32.5122 18.5529 32.272 18.4726 32.0117C18.3922 31.7514 18.3682 31.477 18.402 31.2067L18.8574 27.5632V5.803L18.402 2.15952C18.3682 1.88923 18.3922 1.61483 18.4726 1.35453C18.5529 1.09424 18.6876 0.854005 18.8679 0.649775C19.0481 0.445545 19.2697 0.28199 19.518 0.169963C19.7663 0.057936 20.0356 0 20.308 0C20.5804 0 20.8496 0.057936 21.0979 0.169963C21.3462 0.28199 21.5678 0.445545 21.7481 0.649775C21.9283 0.854005 22.0631 1.09424 22.1434 1.35453C22.2237 1.61483 22.2477 1.88923 22.2139 2.15952L21.7585 5.803V27.5632Z" fill="#CCDCE4"/>
<path d="M18.8574 5.80298H21.7586V27.5632H18.8574V5.80298Z" fill="#FF7272"/>
<path d="M26.2294 34.2372L26.3553 37.9069C26.3647 38.1791 26.316 38.4502 26.2126 38.7021C26.1092 38.9541 25.9533 39.1812 25.7555 39.3684C25.5576 39.5555 25.3222 39.6985 25.0648 39.7877C24.8075 39.8769 24.5341 39.9104 24.2629 39.8859C23.9916 39.8614 23.7287 39.7795 23.4915 39.6457C23.2543 39.5118 23.0483 39.329 22.8871 39.1095C22.7259 38.8899 22.6133 38.6386 22.5566 38.3721C22.5 38.1057 22.5007 37.8303 22.5586 37.5641L23.3397 33.9763L25.2961 12.3038L25.1701 8.63413C25.1607 8.36187 25.2093 8.09074 25.3127 7.83872C25.4161 7.58671 25.572 7.35956 25.7698 7.17236C25.9677 6.98516 26.2032 6.84218 26.4605 6.75292C26.7179 6.66366 26.9913 6.63015 27.2626 6.65462C27.5338 6.67908 27.7968 6.76097 28.0341 6.89483C28.2713 7.0287 28.4774 7.21149 28.6386 7.43108C28.7998 7.65066 28.9124 7.90202 28.9691 8.16848C29.0257 8.43493 29.0251 8.71039 28.9672 8.97658L28.1864 12.5648L26.2294 34.2372Z" fill="#CCDCE4"/>
<path d="M23.3408 33.9784L25.2989 12.3065L28.1882 12.5676L26.2302 34.2395L23.3408 33.9784Z" fill="#FF7272"/>
<path d="M2.17578 18.1338H31.1871V23.9365H2.17578V18.1338Z" fill="#CCDCE4"/>
<path d="M33.363 42.07H1.45057C1.06585 42.07 0.696895 41.9172 0.424861 41.6451C0.152827 41.3731 0 41.0041 0 40.6193V21.7605H33.363V42.07Z" fill="#FF7272"/>
<path d="M16.6814 31.9153C18.2837 31.9153 19.5825 30.6163 19.5825 29.0139C19.5825 27.4115 18.2837 26.1125 16.6814 26.1125C15.0792 26.1125 13.7803 27.4115 13.7803 29.0139C13.7803 30.6163 15.0792 31.9153 16.6814 31.9153Z" fill="#CCDCE4"/>
<path d="M9.42871 31.1899H38.44V40.6194C38.44 41.0041 38.2872 41.3731 38.0152 41.6451C37.7431 41.9172 37.3742 42.07 36.9895 42.07H10.8793C10.4946 42.07 10.1256 41.9172 9.85357 41.6451C9.58154 41.3731 9.42871 41.0041 9.42871 40.6194V31.1899Z" fill="#CCDCE4"/>
<path d="M9.42871 31.1899H38.44V34.0913H9.42871V31.1899Z" fill="#ABBAC2"/>
</svg>
