<svg width="24" height="24" viewBox="0 0 24 24" fill="none" xmlns="http://www.w3.org/2000/svg">
<path d="M9 11C9.79113 11 10.5645 10.7654 11.2223 10.3259C11.8801 9.88635 12.3928 9.26164 12.6955 8.53074C12.9983 7.79983 13.0775 6.99556 12.9231 6.21964C12.7688 5.44372 12.3878 4.73098 11.8284 4.17157C11.269 3.61216 10.5563 3.2312 9.78036 3.07686C9.00444 2.92252 8.20017 3.00173 7.46927 3.30448C6.73836 3.60723 6.11365 4.11992 5.67412 4.77772C5.2346 5.43552 5 6.20888 5 7C5 8.06087 5.42143 9.07828 6.17157 9.82843C6.92172 10.5786 7.93913 11 9 11Z" fill="#ABBAC2"/>
<path d="M17 13C17.5933 13 18.1734 12.8241 18.6667 12.4944C19.1601 12.1648 19.5446 11.6962 19.7716 11.1481C19.9987 10.5999 20.0581 9.99667 19.9424 9.41473C19.8266 8.83279 19.5409 8.29824 19.1213 7.87868C18.7018 7.45912 18.1672 7.1734 17.5853 7.05765C17.0033 6.94189 16.4001 7.0013 15.8519 7.22836C15.3038 7.45543 14.8352 7.83994 14.5056 8.33329C14.1759 8.82664 14 9.40666 14 10C14 10.7957 14.3161 11.5587 14.8787 12.1213C15.4413 12.6839 16.2044 13 17 13Z" fill="#ABBAC2"/>
<path d="M21 20.0001C21.2652 20.0001 21.5196 19.8947 21.7071 19.7072C21.8946 19.5196 22 19.2653 22 19.0001C21.9992 18.0655 21.7365 17.1498 21.2416 16.3569C20.7468 15.5641 20.0396 14.9258 19.2003 14.5145C18.3611 14.1032 17.4234 13.9354 16.4936 14.0301C15.5638 14.1247 14.6791 14.4781 13.94 15.0501C12.9605 14.0744 11.7141 13.4106 10.3578 13.1425C9.00159 12.8743 7.59632 13.0137 6.31923 13.5432C5.04213 14.0726 3.95041 14.9684 3.18174 16.1175C2.41307 17.2666 2.00187 18.6176 2 20.0001C2 20.2653 2.10536 20.5196 2.29289 20.7072C2.48043 20.8947 2.73478 21.0001 3 21.0001H15C15.2652 21.0001 15.5196 20.8947 15.7071 20.7072C15.8946 20.5196 16 20.2653 16 20.0001" fill="#ABBAC2"/>
</svg>
