<svg width="37" height="43" viewBox="0 0 37 43" fill="none" xmlns="http://www.w3.org/2000/svg">
<path d="M0.718627 42.07V5.80276L0 0H25.152L24.4333 5.80276V42.07H0.718627Z" fill="#FF7272"/>
<path d="M0.718627 5.80276H24.4333L25.152 0H0L0.718627 5.80276Z" fill="#CCDCE4"/>
<path d="M0.71875 5.80273H24.4335V8.70411H0.71875V5.80273Z" fill="#ABBAC2"/>
<path d="M0.71875 8.7041H24.4335V14.5069H0.71875V8.7041Z" fill="#CCDCE4"/>
<path d="M0.71875 35.5419H24.4335V42.07H0.71875V35.5419Z" fill="#CCDCE4"/>
<path d="M24.4335 42.07C31.1805 42.07 36.6501 36.5493 36.6501 29.7392C36.6501 22.929 31.1805 17.4083 24.4335 17.4083C17.6864 17.4083 12.2168 22.929 12.2168 29.7392C12.2168 36.5493 17.6864 42.07 24.4335 42.07Z" fill="#D7E6EB"/>
<path d="M25.7516 21.8706C24.8787 21.7242 23.9879 21.7242 23.115 21.8706L22.8771 20.44C23.9075 20.2669 24.9591 20.2669 25.9895 20.44L25.7516 21.8706Z" fill="#ABBAC2"/>
<path d="M19.3942 23.5902L18.4795 22.4711C19.2857 21.8007 20.1965 21.2699 21.1749 20.9004L21.6775 22.2595C20.8486 22.5725 20.077 23.0222 19.394 23.5902H19.3942Z" fill="#ABBAC2"/>
<path d="M17.0233 26.9572L15.6768 26.4495C16.0428 25.462 16.5687 24.5426 17.2329 23.7289L18.3416 24.6526C17.7789 25.342 17.3334 26.1208 17.0233 26.9574V26.9572Z" fill="#ABBAC2"/>
<path d="M15.22 31.3099C15.0478 30.27 15.0478 29.2084 15.22 28.1685L16.6374 28.4085C16.4916 29.2895 16.4916 30.1888 16.6374 31.0698L15.22 31.3099Z" fill="#ABBAC2"/>
<path d="M17.2329 35.7488C16.5687 34.9351 16.0428 34.0157 15.6768 33.0282L17.0233 32.5205C17.3334 33.3571 17.7789 34.1359 18.3416 34.8253L17.2329 35.7488Z" fill="#ABBAC2"/>
<path d="M21.1749 38.5778C20.1965 38.2083 19.2857 37.6775 18.4795 37.0071L19.3942 35.8881C20.0772 36.456 20.8488 36.9057 21.6777 37.2187L21.1749 38.5778Z" fill="#ABBAC2"/>
<path d="M24.4337 39.1686C23.9118 39.1686 23.3907 39.1249 22.876 39.0379L23.1154 37.6075C23.9883 37.754 24.8791 37.754 25.752 37.6075L25.9899 39.0382C25.4756 39.1251 24.9551 39.1687 24.4337 39.1686Z" fill="#ABBAC2"/>
<path d="M27.6925 38.5778L27.1895 37.2187C28.0183 36.9057 28.7899 36.456 29.4729 35.8881L30.3874 37.0071C29.5812 37.6775 28.6704 38.2083 27.692 38.5778H27.6925Z" fill="#ABBAC2"/>
<path d="M31.6341 35.7489L30.5254 34.8257C31.0881 34.1363 31.5336 33.3574 31.8437 32.5209L33.1902 33.0286C32.8242 34.0161 32.2983 34.9355 31.6341 35.7492V35.7489Z" fill="#ABBAC2"/>
<path d="M33.6459 31.3099L32.2285 31.0698C32.3743 30.1888 32.3743 29.2895 32.2285 28.4085L33.6459 28.1685C33.8182 29.2084 33.8182 30.27 33.6459 31.3099Z" fill="#ABBAC2"/>
<path d="M31.8437 26.9572C31.5336 26.1207 31.0881 25.3418 30.5254 24.6525L31.6341 23.7294C32.2983 24.5431 32.8242 25.4625 33.1902 26.45L31.8437 26.9572Z" fill="#ABBAC2"/>
<path d="M29.4729 23.5902C28.7899 23.0222 28.0183 22.5725 27.1895 22.2595L27.6925 20.9004C28.6708 21.2699 29.5817 21.8007 30.3879 22.4711L29.4729 23.5902Z" fill="#ABBAC2"/>
<path d="M2.87402 16.683H4.31128V18.1337H2.87402V16.683Z" fill="#D63434"/>
<path d="M4.31152 21.035H5.74878V22.4857H4.31152V21.035Z" fill="#D63434"/>
<path d="M2.87402 23.9364H10.0603V25.3871H2.87402V23.9364Z" fill="#D63434"/>
<path d="M2.87402 26.8378H10.0603V28.2885H2.87402V26.8378Z" fill="#D63434"/>
<path d="M2.87402 29.7391H10.0603V31.1898H2.87402V29.7391Z" fill="#D63434"/>
<path d="M7.18652 21.035H11.4983V22.4857H7.18652V21.035Z" fill="#D63434"/>
</svg>
