<svg width="19" height="43" viewBox="0 0 19 43" fill="none" xmlns="http://www.w3.org/2000/svg">
<path d="M18.8605 30.4645V42.07H8.70508V30.4645L9.17476 22.4785C9.24396 21.3033 9.75957 20.199 10.6161 19.3914C11.4727 18.5838 12.6055 18.134 13.7828 18.134C14.96 18.134 16.0928 18.5838 16.9494 19.3914C17.806 20.199 18.3216 21.3033 18.3908 22.4785L18.8605 30.4645Z" fill="#CCDCE4"/>
<path d="M11.6066 28.2458V40.6193C11.6071 41.1288 11.4726 41.6293 11.2167 42.07H8.70508V30.4644L9.17476 22.4784C9.21411 21.7979 9.40402 21.1347 9.7308 20.5365C10.0576 19.9384 10.5131 19.4202 11.0644 19.0194L11.6066 28.2458Z" fill="#ABBAC2"/>
<path d="M8.70508 39.1686H18.8605V42.07H8.70508V39.1686Z" fill="#FF7272"/>
<path d="M8.70508 39.1686H11.6066V40.6193C11.6066 41.004 11.4538 41.373 11.1817 41.6451C10.9096 41.9171 10.5406 42.07 10.1558 42.07H8.70508V39.1686Z" fill="#D63434"/>
<path d="M2.17578 2.90137H7.97886V18.1336H2.17578V2.90137Z" fill="#EA4042"/>
<path d="M10.1554 28.2885V40.6194C10.1554 41.0041 10.0025 41.3731 9.73047 41.6452C9.45839 41.9172 9.08938 42.0701 8.70462 42.0701H1.45077C1.066 42.0701 0.696993 41.9172 0.424921 41.6452C0.152849 41.3731 0 41.0041 0 40.6194V28.2885L0.725385 15.9576H9.43L10.1554 28.2885Z" fill="#CCDCE4"/>
<path d="M4.35254 33.3658H5.80331V34.8165H4.35254V33.3658Z" fill="#35505D"/>
<path d="M3.62695 36.2672H6.52849V37.7179H3.62695V36.2672Z" fill="#35505D"/>
<path d="M0 28.2885H10.1554V31.1898H0V28.2885Z" fill="#FF7272"/>
<path d="M7.97923 0V2.90138C7.97923 3.47522 7.80906 4.03617 7.49024 4.5133C7.17141 4.99043 6.71825 5.36231 6.18807 5.5819C5.65788 5.8015 5.07448 5.85896 4.51163 5.74701C3.94879 5.63506 3.43179 5.35873 3.026 4.95296C2.62021 4.5472 2.34387 4.03022 2.23191 3.46741C2.11995 2.9046 2.17741 2.32123 2.39702 1.79107C2.61663 1.26091 2.98853 0.807778 3.46569 0.488971C3.94284 0.170163 4.50383 0 5.0777 0H7.97923Z" fill="#D43431"/>
</svg>
