<svg width="32" height="43" viewBox="0 0 32 43" fill="none" xmlns="http://www.w3.org/2000/svg">
<path d="M18.7315 0L15.6454 26.8339H21.6324L22.449 33.3669L25.2586 32.6358L21.6324 0H18.7315Z" fill="#CCDCE4"/>
<path d="M15.6456 26.8339L15.1055 32.6358L17.915 33.3669L18.7316 26.8339H15.6456Z" fill="#ABBAC2"/>
<path d="M19.457 23.2076H20.9075V24.6581H19.457V23.2076Z" fill="#ABBAC2"/>
<path d="M13.6548 29.7349C10.8511 29.7349 8.57812 32.3325 8.57812 35.5368C8.57812 38.7411 10.8511 41.3387 13.6548 41.3387C16.4584 41.3387 18.7314 38.7411 18.7314 35.5368C18.7314 32.3325 16.4585 29.7349 13.6548 29.7349ZM13.6548 38.4377C12.4754 38.4377 11.4791 37.1093 11.4791 35.5368C11.4791 33.9643 12.4754 32.6358 13.6548 32.6358C14.8341 32.6358 15.8305 33.9643 15.8305 35.5368C15.8305 37.1093 14.8342 38.4377 13.6548 38.4377Z" fill="#58646F"/>
<path d="M31.4858 39.7638L30.7583 39.0363C31.4368 37.9959 31.7942 36.7789 31.7861 35.5368C31.7861 32.3325 29.5132 29.7349 26.7095 29.7349C23.9057 29.7349 21.6328 32.3325 21.6328 35.5368C21.6328 38.7411 23.9057 41.3387 26.7095 41.3387C27.3472 41.338 27.9775 41.202 28.5588 40.9398L29.4341 41.8152C29.7061 42.0872 30.075 42.24 30.4597 42.24C30.8444 42.24 31.2134 42.0872 31.4854 41.8152C31.7574 41.5432 31.9102 41.1742 31.9102 40.7895C31.9102 40.4048 31.7574 40.0359 31.4854 39.7638L31.4858 39.7638ZM26.7095 38.4377C25.5301 38.4377 24.5338 37.1093 24.5338 35.5368C24.5338 33.9643 25.5301 32.6358 26.7095 32.6358C27.8888 32.6358 28.8852 33.9643 28.8852 35.5368C28.8852 37.1093 27.8889 38.4377 26.7095 38.4377Z" fill="#58646F"/>
<path d="M10.8785 26.1086H5.90305C5.609 26.1086 5.31801 26.1682 5.04764 26.2838C4.77728 26.3994 4.53315 26.5686 4.33 26.7812C4.12685 26.9938 3.96891 27.2454 3.8657 27.5207C3.76249 27.796 3.71616 28.0894 3.72952 28.3832L4.15378 37.717C4.1793 38.2784 4.09077 38.8391 3.89353 39.3653C3.6963 39.8915 3.39445 40.3722 3.00622 40.7785C2.61799 41.1848 2.15144 41.5082 1.63475 41.7291C1.11806 41.95 0.561943 42.0639 0 42.0639V2.90096C0 2.13158 0.305634 1.39371 0.849665 0.849671C1.3937 0.305636 2.13156 0 2.90094 0H10.8785C11.2632 0 11.6321 0.152818 11.9042 0.424836C12.1762 0.696853 12.329 1.06579 12.329 1.45048C12.329 1.83517 12.1762 2.20411 11.9042 2.47612C11.6321 2.74814 11.2632 2.90096 10.8785 2.90096H7.25235C6.86766 2.90096 6.49873 3.05378 6.22671 3.3258C5.95469 3.59781 5.80188 3.96675 5.80188 4.35144C5.80188 4.73613 5.95469 5.10507 6.22671 5.37708C6.49873 5.6491 6.86766 5.80192 7.25235 5.80192H10.8785C11.2632 5.80192 11.6321 5.95474 11.9042 6.22676C12.1762 6.49877 12.329 6.86771 12.329 7.2524C12.329 7.63709 12.1762 8.00602 11.9042 8.27804C11.6321 8.55006 11.2632 8.70288 10.8785 8.70288H7.25235C6.86766 8.70288 6.49873 8.8557 6.22671 9.12771C5.95469 9.39973 5.80188 9.76867 5.80188 10.1534C5.80188 10.538 5.95469 10.907 6.22671 11.179C6.49873 11.451 6.86766 11.6038 7.25235 11.6038H10.8785C11.2632 11.6038 11.6321 11.7567 11.9042 12.0287C12.1762 12.3007 12.329 12.6696 12.329 13.0543C12.329 13.439 12.1762 13.8079 11.9042 14.08C11.6321 14.352 11.2632 14.5048 10.8785 14.5048H7.25235C6.86766 14.5048 6.49873 14.6576 6.22671 14.9296C5.95469 15.2017 5.80188 15.5706 5.80188 15.9553C5.80188 16.34 5.95469 16.7089 6.22671 16.9809C6.49873 17.2529 6.86766 17.4058 7.25235 17.4058H10.8785C11.2632 17.4058 11.6321 17.5586 11.9042 17.8306C12.1762 18.1026 12.329 18.4715 12.329 18.8562C12.329 19.2409 12.1762 19.6099 11.9042 19.8819C11.6321 20.1539 11.2632 20.3067 10.8785 20.3067H7.25235C6.86766 20.3067 6.49873 20.4595 6.22671 20.7316C5.95469 21.0036 5.80188 21.3725 5.80188 21.7572C5.80188 22.1419 5.95469 22.5108 6.22671 22.7828C6.49873 23.0549 6.86766 23.2077 7.25235 23.2077H10.8785C11.2632 23.2077 11.6321 23.3605 11.9042 23.6325C12.1762 23.9045 12.329 24.2735 12.329 24.6582C12.329 25.0428 12.1762 25.4118 11.9042 25.6838C11.6321 25.9558 11.2632 26.1086 10.8785 26.1086Z" fill="#FF7272"/>
</svg>
