<svg width="192" height="464" viewBox="0 0 192 464" fill="none" xmlns="http://www.w3.org/2000/svg">
<path d="M192 0V448C192 452.243 190.314 456.313 187.314 459.314C184.313 462.314 180.243 464 176 464H65.6C62.6375 463.997 59.7338 463.173 57.2112 461.62C54.6886 460.066 52.646 457.844 51.31 455.2C37.85 428.58 0 343.81 0 232C0.0807974 188.156 5.7464 144.502 16.86 102.09C33.35 38.83 56 0 56 0H192Z" fill="#CCDCE4"/>
<path d="M192 0V59.64L16.8604 102.09C23.0576 78.1813 30.9885 54.756 40.5903 32C49.3303 11.43 56.0004 0 56.0004 0H192Z" fill="#FF7272"/>
<path d="M192 0V32H40.5898C49.3298 11.43 55.9998 0 55.9998 0H192Z" fill="#D63434"/>
<path d="M80.808 424C66.092 391.16 40 320.455 40 232C40.0377 199.462 43.4415 167.015 50.157 135.178L152 110.493V424H80.808Z" fill="#FF7272"/>
<path d="M96 232C109.255 232 120 221.255 120 208C120 194.745 109.255 184 96 184C82.7452 184 72 194.745 72 208C72 221.255 82.7452 232 96 232Z" fill="#D63434"/>
<path d="M88 264H104V280H88V264Z" fill="#D63434"/>
<path d="M80 296H112V312H80V296Z" fill="#D63434"/>
</svg>
